<?xml version="1.0" standalone="no"?>
<!DOCTYPE svg PUBLIC "-//W3C//DTD SVG 20010904//EN"
 "http://www.w3.org/TR/2001/REC-SVG-20010904/DTD/svg10.dtd">
<svg version="1.0" xmlns="http://www.w3.org/2000/svg"
 width="500.000000pt" height="500.000000pt" viewBox="0 0 500.000000 500.000000"
 preserveAspectRatio="xMidYMid meet">

<g transform="translate(0.000000,500.000000) scale(0.100000,-0.100000)"
fill="#000000" stroke="none">
<path d="M750 4512 c-157 -52 -264 -180 -292 -346 -20 -118 15 -247 103 -381
27 -42 49 -87 49 -100 0 -15 -17 -41 -48 -72 -100 -100 -133 -225 -113 -430
21 -212 60 -455 100 -618 45 -182 72 -321 101 -514 12 -78 30 -157 44 -190 13
-31 31 -77 40 -102 9 -26 32 -68 51 -95 19 -27 35 -60 35 -73 0 -14 9 -43 19
-65 11 -23 30 -68 42 -100 25 -69 88 -142 129 -151 62 -14 142 58 172 153 7
23 16 42 19 42 3 0 44 -17 90 -39 210 -97 509 -124 719 -65 194 55 365 222
389 381 l7 48 23 -60 c30 -80 63 -129 110 -163 29 -21 37 -32 30 -43 -27 -43
11 -180 61 -223 42 -35 77 -39 170 -22 45 9 109 16 141 16 32 0 76 7 96 15 55
21 340 45 539 45 94 0 259 -7 365 -16 222 -18 432 -14 524 10 142 38 217 141
186 255 -10 39 -10 46 5 54 44 25 97 85 126 145 30 60 33 76 33 152 0 122 -30
176 -200 367 -73 81 -146 161 -163 176 -30 29 -30 30 -15 65 10 25 14 58 11
102 l-4 65 51 47 c154 141 158 347 9 569 -152 227 -580 575 -979 797 -202 113
-469 211 -630 233 -114 15 -311 6 -387 -17 -55 -16 -61 -16 -114 1 -81 25
-185 17 -259 -21 -62 -31 -138 -107 -164 -164 -8 -19 -16 -37 -17 -38 -2 -2
-47 23 -101 57 -54 33 -156 88 -225 121 -126 60 -374 150 -415 150 -12 0 -64
12 -115 26 -127 34 -272 41 -348 16z m305 -173 c44 -12 103 -25 130 -29 200
-32 629 -250 842 -428 34 -29 65 -52 68 -52 3 0 5 58 5 128 0 121 1 130 26
168 42 65 86 89 164 89 56 0 73 -4 106 -27 l40 -28 39 20 c22 11 69 27 105 36
94 24 292 14 417 -21 277 -77 502 -196 868 -459 185 -132 419 -350 492 -456
88 -130 114 -239 75 -317 -27 -52 -101 -117 -159 -139 -42 -16 -52 -16 -186 0
-78 10 -191 20 -252 23 l-110 5 70 -43 c267 -166 480 -346 701 -591 68 -76
130 -151 138 -167 23 -44 30 -104 16 -145 -50 -153 -258 -201 -695 -161 -306
28 -799 11 -923 -30 -23 -8 -69 -15 -101 -15 -32 0 -94 -7 -137 -16 -88 -18
-135 -11 -171 28 -27 29 -63 120 -63 159 0 72 53 134 125 146 l35 6 0 66 c0
59 -18 340 -36 569 l-7 82 -46 25 c-59 32 -93 82 -99 144 -6 68 12 114 64 160
l45 39 -25 290 c-15 159 -26 293 -26 298 0 15 -92 77 -100 67 -4 -4 -15 -87
-25 -183 -21 -209 -17 -440 10 -568 17 -78 17 -85 1 -118 -42 -90 -182 -76
-248 24 -33 49 -72 159 -88 247 -10 56 -21 81 -55 125 -97 126 -259 251 -429
330 -86 41 -281 110 -309 110 -9 0 100 -116 242 -257 385 -385 612 -641 690
-776 46 -80 119 -302 127 -383 24 -258 -125 -465 -391 -543 -241 -70 -556 -31
-808 100 -4 2 -19 -23 -32 -55 -27 -67 -85 -132 -124 -139 -59 -12 -136 54
-167 143 -9 25 -25 64 -36 88 -11 25 -32 120 -48 225 -33 210 -56 324 -100
498 -45 177 -92 500 -94 639 -1 104 1 120 24 164 14 28 42 63 62 80 76 60 209
40 258 -38 27 -44 72 -220 110 -431 56 -310 116 -501 194 -618 20 -30 72 -89
115 -130 99 -94 126 -102 361 -101 185 0 232 9 274 53 26 27 28 35 24 83 -6
73 -54 173 -127 261 -221 272 -547 617 -701 745 -220 183 -456 440 -534 583
-68 125 -69 237 -3 336 74 110 195 135 392 82z m377 -1621 c85 -90 194 -208
243 -263 l90 -100 -47 -3 c-26 -2 -80 1 -119 7 -71 10 -74 11 -136 73 -74 73
-129 172 -166 298 -33 112 -41 150 -29 150 5 0 79 -73 164 -162z m1093 -114
c4 -22 5 -52 3 -65 -3 -18 -9 -8 -25 41 -12 36 -25 74 -29 84 -7 19 -7 19 19
0 18 -13 28 -32 32 -60z"/>
<path d="M2994 3713 c19 -97 39 -217 55 -342 11 -79 22 -145 25 -148 2 -3 42
0 87 6 127 17 455 34 554 28 l90 -5 -110 107 c-178 172 -401 307 -589 356 -54
14 -103 25 -108 25 -5 0 -7 -12 -4 -27z"/>
<path d="M3140 2677 c0 -8 11 -94 24 -193 14 -98 30 -224 36 -279 7 -55 13
-102 15 -105 2 -3 68 0 147 8 184 17 412 9 626 -23 90 -13 168 -27 173 -31 7
-4 7 1 0 15 -24 45 -255 234 -422 346 -103 69 -373 203 -492 244 -100 35 -107
36 -107 18z"/>
</g>
</svg>
